<?xml version="1.0" encoding="UTF-8" standalone="no"?>
<!DOCTYPE svg PUBLIC "-//W3C//DTD SVG 1.1//EN"
 "http://www.w3.org/Graphics/SVG/1.1/DTD/svg11.dtd">
<!-- Generated by graphviz version 12.2.1 (20241206.2353)
 -->
<!-- Title: G Pages: 1 -->
<svg width="1300pt" height="1895pt"
 viewBox="0.00 0.00 1299.94 1895.38" xmlns="http://www.w3.org/2000/svg" xmlns:xlink="http://www.w3.org/1999/xlink">
<g id="graph0" class="graph" transform="scale(1 1) rotate(0) translate(4 1891.38)">
<title>G</title>
<polygon fill="white" stroke="none" points="-4,4 -4,-1891.38 1295.94,-1891.38 1295.94,4 -4,4"/>
<!-- node_0 -->
<g id="node1" class="node">
<title>node_0</title>
<ellipse fill="lightgreen" stroke="black" cx="251.4" cy="-1766.25" rx="76.05" ry="76.05"/>
<text text-anchor="middle" x="251.4" y="-1762.75" font-family="Arial" font-size="10.00">Start: analyze_file</text>
</g>
<!-- node_2 -->
<g id="node3" class="node">
<title>node_2</title>
<path fill="none" stroke="black" d="M344.55,-1469.12C344.55,-1469.12 158.25,-1469.12 158.25,-1469.12 152.25,-1469.12 146.25,-1463.12 146.25,-1457.12 146.25,-1457.12 146.25,-1440.32 146.25,-1440.32 146.25,-1434.32 152.25,-1428.32 158.25,-1428.32 158.25,-1428.32 344.55,-1428.32 344.55,-1428.32 350.55,-1428.32 356.55,-1434.32 356.55,-1440.32 356.55,-1440.32 356.55,-1457.12 356.55,-1457.12 356.55,-1463.12 350.55,-1469.12 344.55,-1469.12"/>
<text text-anchor="middle" x="251.4" y="-1445.22" font-family="Arial" font-size="10.00">let content = fs :: read_to_string (path) ? ;</text>
</g>
<!-- node_0&#45;&gt;node_2 -->
<g id="edge1" class="edge">
<title>node_0&#45;&gt;node_2</title>
<path fill="none" stroke="black" d="M251.4,-1689.79C251.4,-1689.79 251.4,-1478.89 251.4,-1478.89"/>
<polygon fill="black" stroke="black" points="254.2,-1478.89 251.4,-1470.89 248.6,-1478.89 254.2,-1478.89"/>
<text text-anchor="middle" x="260.77" y="-1610.62" font-family="Arial" font-size="10.00">next</text>
</g>
<!-- node_1 -->
<g id="node2" class="node">
<title>node_1</title>
<ellipse fill="lightpink" stroke="black" cx="251.4" cy="-619.85" rx="73.4" ry="73.4"/>
<text text-anchor="middle" x="251.4" y="-616.35" font-family="Arial" font-size="10.00">End: analyze_file</text>
</g>
<!-- node_3 -->
<g id="node4" class="node">
<title>node_3</title>
<path fill="none" stroke="black" d="M490.8,-1252.32C490.8,-1252.32 12,-1252.32 12,-1252.32 6,-1252.32 0,-1246.32 0,-1240.32 0,-1240.32 0,-1223.52 0,-1223.52 0,-1217.52 6,-1211.52 12,-1211.52 12,-1211.52 490.8,-1211.52 490.8,-1211.52 496.8,-1211.52 502.8,-1217.52 502.8,-1223.52 502.8,-1223.52 502.8,-1240.32 502.8,-1240.32 502.8,-1246.32 496.8,-1252.32 490.8,-1252.32"/>
<text text-anchor="middle" x="251.4" y="-1228.42" font-family="Arial" font-size="10.00">let syntax = syn :: parse_file (&amp; content) . with_context (| | format ! (&quot;Failed to parse {}&quot; , path . display ())) ? ;</text>
</g>
<!-- node_2&#45;&gt;node_3 -->
<g id="edge2" class="edge">
<title>node_2&#45;&gt;node_3</title>
<path fill="none" stroke="black" d="M251.4,-1427.93C251.4,-1427.93 251.4,-1262.16 251.4,-1262.16"/>
<polygon fill="black" stroke="black" points="254.2,-1262.16 251.4,-1254.16 248.6,-1262.16 254.2,-1262.16"/>
<text text-anchor="middle" x="260.77" y="-1279.82" font-family="Arial" font-size="10.00">next</text>
</g>
<!-- node_4 -->
<g id="node5" class="node">
<title>node_4</title>
<path fill="none" stroke="black" d="M334.42,-1149.52C334.42,-1149.52 168.37,-1149.52 168.37,-1149.52 162.37,-1149.52 156.37,-1143.52 156.37,-1137.52 156.37,-1137.52 156.37,-1120.72 156.37,-1120.72 156.37,-1114.72 162.37,-1108.72 168.37,-1108.72 168.37,-1108.72 334.42,-1108.72 334.42,-1108.72 340.42,-1108.72 346.42,-1114.72 346.42,-1120.72 346.42,-1120.72 346.42,-1137.52 346.42,-1137.52 346.42,-1143.52 340.42,-1149.52 334.42,-1149.52"/>
<text text-anchor="middle" x="251.4" y="-1125.62" font-family="Arial" font-size="10.00">let mut graph = FlowGraph :: new () ;</text>
</g>
<!-- node_3&#45;&gt;node_4 -->
<g id="edge3" class="edge">
<title>node_3&#45;&gt;node_4</title>
<path fill="none" stroke="black" d="M251.4,-1211.12C251.4,-1211.12 251.4,-1159.41 251.4,-1159.41"/>
<polygon fill="black" stroke="black" points="254.2,-1159.41 251.4,-1151.41 248.6,-1159.41 254.2,-1159.41"/>
<text text-anchor="middle" x="260.77" y="-1177.02" font-family="Arial" font-size="10.00">next</text>
</g>
<!-- node_5 -->
<g id="node6" class="node">
<title>node_5</title>
<path fill="none" stroke="black" d="M378.67,-1046.72C378.67,-1046.72 124.12,-1046.72 124.12,-1046.72 118.12,-1046.72 112.12,-1040.72 112.12,-1034.72 112.12,-1034.72 112.12,-1017.92 112.12,-1017.92 112.12,-1011.92 118.12,-1005.92 124.12,-1005.92 124.12,-1005.92 378.67,-1005.92 378.67,-1005.92 384.67,-1005.92 390.67,-1011.92 390.67,-1017.92 390.67,-1017.92 390.67,-1034.72 390.67,-1034.72 390.67,-1040.72 384.67,-1046.72 378.67,-1046.72"/>
<text text-anchor="middle" x="251.4" y="-1022.82" font-family="Arial" font-size="10.00">let mut visitor = ControlFlowVisitor :: new (&amp; mut graph) ;</text>
</g>
<!-- node_4&#45;&gt;node_5 -->
<g id="edge4" class="edge">
<title>node_4&#45;&gt;node_5</title>
<path fill="none" stroke="black" d="M251.4,-1108.32C251.4,-1108.32 251.4,-1056.61 251.4,-1056.61"/>
<polygon fill="black" stroke="black" points="254.2,-1056.61 251.4,-1048.61 248.6,-1056.61 254.2,-1056.61"/>
<text text-anchor="middle" x="260.77" y="-1074.22" font-family="Arial" font-size="10.00">next</text>
</g>
<!-- node_6 -->
<g id="node7" class="node">
<title>node_6</title>
<path fill="none" stroke="black" d="M313.42,-943.92C313.42,-943.92 189.37,-943.92 189.37,-943.92 183.37,-943.92 177.37,-937.92 177.37,-931.92 177.37,-931.92 177.37,-915.12 177.37,-915.12 177.37,-909.12 183.37,-903.12 189.37,-903.12 189.37,-903.12 313.42,-903.12 313.42,-903.12 319.42,-903.12 325.42,-909.12 325.42,-915.12 325.42,-915.12 325.42,-931.92 325.42,-931.92 325.42,-937.92 319.42,-943.92 313.42,-943.92"/>
<text text-anchor="middle" x="251.4" y="-920.02" font-family="Arial" font-size="10.00">visitor . visit_file (&amp; syntax)</text>
</g>
<!-- node_5&#45;&gt;node_6 -->
<g id="edge5" class="edge">
<title>node_5&#45;&gt;node_6</title>
<path fill="none" stroke="black" d="M251.4,-1005.52C251.4,-1005.52 251.4,-953.81 251.4,-953.81"/>
<polygon fill="black" stroke="black" points="254.2,-953.81 251.4,-945.81 248.6,-953.81 254.2,-953.81"/>
<text text-anchor="middle" x="260.77" y="-971.42" font-family="Arial" font-size="10.00">next</text>
</g>
<!-- node_7 -->
<g id="node8" class="node">
<title>node_7</title>
<path fill="none" stroke="black" d="M299.17,-841.12C299.17,-841.12 203.62,-841.12 203.62,-841.12 197.62,-841.12 191.62,-835.12 191.62,-829.12 191.62,-829.12 191.62,-812.32 191.62,-812.32 191.62,-806.32 197.62,-800.32 203.62,-800.32 203.62,-800.32 299.17,-800.32 299.17,-800.32 305.17,-800.32 311.17,-806.32 311.17,-812.32 311.17,-812.32 311.17,-829.12 311.17,-829.12 311.17,-835.12 305.17,-841.12 299.17,-841.12"/>
<text text-anchor="middle" x="251.4" y="-817.22" font-family="Arial" font-size="10.00">Ok (graph . to_dot ())</text>
</g>
<!-- node_6&#45;&gt;node_7 -->
<g id="edge6" class="edge">
<title>node_6&#45;&gt;node_7</title>
<path fill="none" stroke="black" d="M251.4,-902.72C251.4,-902.72 251.4,-851.01 251.4,-851.01"/>
<polygon fill="black" stroke="black" points="254.2,-851.01 251.4,-843.01 248.6,-851.01 254.2,-851.01"/>
<text text-anchor="middle" x="260.77" y="-868.62" font-family="Arial" font-size="10.00">next</text>
</g>
<!-- node_7&#45;&gt;node_1 -->
<g id="edge7" class="edge">
<title>node_7&#45;&gt;node_1</title>
<path fill="none" stroke="black" d="M251.4,-799.98C251.4,-799.98 251.4,-702.91 251.4,-702.91"/>
<polygon fill="black" stroke="black" points="254.2,-702.91 251.4,-694.91 248.6,-702.91 254.2,-702.91"/>
<text text-anchor="middle" x="263.77" y="-765.82" font-family="Arial" font-size="10.00">return</text>
</g>
<!-- node_8 -->
<g id="node9" class="node">
<title>node_8</title>
<ellipse fill="lightgreen" stroke="black" cx="790.4" cy="-1766.25" rx="121.13" ry="121.13"/>
<text text-anchor="middle" x="790.4" y="-1762.75" font-family="Arial" font-size="10.00">Start: analyze_file_with_renderer</text>
</g>
<!-- node_10 -->
<g id="node11" class="node">
<title>node_10</title>
<path fill="none" stroke="black" d="M883.55,-1469.12C883.55,-1469.12 697.25,-1469.12 697.25,-1469.12 691.25,-1469.12 685.25,-1463.12 685.25,-1457.12 685.25,-1457.12 685.25,-1440.32 685.25,-1440.32 685.25,-1434.32 691.25,-1428.32 697.25,-1428.32 697.25,-1428.32 883.55,-1428.32 883.55,-1428.32 889.55,-1428.32 895.55,-1434.32 895.55,-1440.32 895.55,-1440.32 895.55,-1457.12 895.55,-1457.12 895.55,-1463.12 889.55,-1469.12 883.55,-1469.12"/>
<text text-anchor="middle" x="790.4" y="-1445.22" font-family="Arial" font-size="10.00">let content = fs :: read_to_string (path) ? ;</text>
</g>
<!-- node_8&#45;&gt;node_10 -->
<g id="edge8" class="edge">
<title>node_8&#45;&gt;node_10</title>
<path fill="none" stroke="black" d="M790.4,-1644.85C790.4,-1644.85 790.4,-1479.03 790.4,-1479.03"/>
<polygon fill="black" stroke="black" points="793.2,-1479.03 790.4,-1471.03 787.6,-1479.03 793.2,-1479.03"/>
<text text-anchor="middle" x="799.77" y="-1610.62" font-family="Arial" font-size="10.00">next</text>
</g>
<!-- node_9 -->
<g id="node10" class="node">
<title>node_9</title>
<ellipse fill="lightpink" stroke="black" cx="790.4" cy="-619.85" rx="118.48" ry="118.48"/>
<text text-anchor="middle" x="790.4" y="-616.35" font-family="Arial" font-size="10.00">End: analyze_file_with_renderer</text>
</g>
<!-- node_11 -->
<g id="node12" class="node">
<title>node_11</title>
<path fill="none" stroke="black" d="M1029.8,-1252.32C1029.8,-1252.32 551,-1252.32 551,-1252.32 545,-1252.32 539,-1246.32 539,-1240.32 539,-1240.32 539,-1223.52 539,-1223.52 539,-1217.52 545,-1211.52 551,-1211.52 551,-1211.52 1029.8,-1211.52 1029.8,-1211.52 1035.8,-1211.52 1041.8,-1217.52 1041.8,-1223.52 1041.8,-1223.52 1041.8,-1240.32 1041.8,-1240.32 1041.8,-1246.32 1035.8,-1252.32 1029.8,-1252.32"/>
<text text-anchor="middle" x="790.4" y="-1228.42" font-family="Arial" font-size="10.00">let syntax = syn :: parse_file (&amp; content) . with_context (| | format ! (&quot;Failed to parse {}&quot; , path . display ())) ? ;</text>
</g>
<!-- node_10&#45;&gt;node_11 -->
<g id="edge9" class="edge">
<title>node_10&#45;&gt;node_11</title>
<path fill="none" stroke="black" d="M790.4,-1427.93C790.4,-1427.93 790.4,-1262.16 790.4,-1262.16"/>
<polygon fill="black" stroke="black" points="793.2,-1262.16 790.4,-1254.16 787.6,-1262.16 793.2,-1262.16"/>
<text text-anchor="middle" x="799.77" y="-1279.82" font-family="Arial" font-size="10.00">next</text>
</g>
<!-- node_12 -->
<g id="node13" class="node">
<title>node_12</title>
<path fill="none" stroke="black" d="M873.42,-1149.52C873.42,-1149.52 707.38,-1149.52 707.38,-1149.52 701.38,-1149.52 695.38,-1143.52 695.38,-1137.52 695.38,-1137.52 695.38,-1120.72 695.38,-1120.72 695.38,-1114.72 701.38,-1108.72 707.38,-1108.72 707.38,-1108.72 873.42,-1108.72 873.42,-1108.72 879.42,-1108.72 885.42,-1114.72 885.42,-1120.72 885.42,-1120.72 885.42,-1137.52 885.42,-1137.52 885.42,-1143.52 879.42,-1149.52 873.42,-1149.52"/>
<text text-anchor="middle" x="790.4" y="-1125.62" font-family="Arial" font-size="10.00">let mut graph = FlowGraph :: new () ;</text>
</g>
<!-- node_11&#45;&gt;node_12 -->
<g id="edge10" class="edge">
<title>node_11&#45;&gt;node_12</title>
<path fill="none" stroke="black" d="M790.4,-1211.12C790.4,-1211.12 790.4,-1159.41 790.4,-1159.41"/>
<polygon fill="black" stroke="black" points="793.2,-1159.41 790.4,-1151.41 787.6,-1159.41 793.2,-1159.41"/>
<text text-anchor="middle" x="799.77" y="-1177.02" font-family="Arial" font-size="10.00">next</text>
</g>
<!-- node_13 -->
<g id="node14" class="node">
<title>node_13</title>
<path fill="none" stroke="black" d="M917.67,-1046.72C917.67,-1046.72 663.12,-1046.72 663.12,-1046.72 657.12,-1046.72 651.12,-1040.72 651.12,-1034.72 651.12,-1034.72 651.12,-1017.92 651.12,-1017.92 651.12,-1011.92 657.12,-1005.92 663.12,-1005.92 663.12,-1005.92 917.67,-1005.92 917.67,-1005.92 923.67,-1005.92 929.67,-1011.92 929.67,-1017.92 929.67,-1017.92 929.67,-1034.72 929.67,-1034.72 929.67,-1040.72 923.67,-1046.72 917.67,-1046.72"/>
<text text-anchor="middle" x="790.4" y="-1022.82" font-family="Arial" font-size="10.00">let mut visitor = ControlFlowVisitor :: new (&amp; mut graph) ;</text>
</g>
<!-- node_12&#45;&gt;node_13 -->
<g id="edge11" class="edge">
<title>node_12&#45;&gt;node_13</title>
<path fill="none" stroke="black" d="M790.4,-1108.32C790.4,-1108.32 790.4,-1056.61 790.4,-1056.61"/>
<polygon fill="black" stroke="black" points="793.2,-1056.61 790.4,-1048.61 787.6,-1056.61 793.2,-1056.61"/>
<text text-anchor="middle" x="799.77" y="-1074.22" font-family="Arial" font-size="10.00">next</text>
</g>
<!-- node_14 -->
<g id="node15" class="node">
<title>node_14</title>
<path fill="none" stroke="black" d="M852.42,-943.92C852.42,-943.92 728.38,-943.92 728.38,-943.92 722.38,-943.92 716.38,-937.92 716.38,-931.92 716.38,-931.92 716.38,-915.12 716.38,-915.12 716.38,-909.12 722.38,-903.12 728.38,-903.12 728.38,-903.12 852.42,-903.12 852.42,-903.12 858.42,-903.12 864.42,-909.12 864.42,-915.12 864.42,-915.12 864.42,-931.92 864.42,-931.92 864.42,-937.92 858.42,-943.92 852.42,-943.92"/>
<text text-anchor="middle" x="790.4" y="-920.02" font-family="Arial" font-size="10.00">visitor . visit_file (&amp; syntax)</text>
</g>
<!-- node_13&#45;&gt;node_14 -->
<g id="edge12" class="edge">
<title>node_13&#45;&gt;node_14</title>
<path fill="none" stroke="black" d="M790.4,-1005.52C790.4,-1005.52 790.4,-953.81 790.4,-953.81"/>
<polygon fill="black" stroke="black" points="793.2,-953.81 790.4,-945.81 787.6,-953.81 793.2,-953.81"/>
<text text-anchor="middle" x="799.77" y="-971.42" font-family="Arial" font-size="10.00">next</text>
</g>
<!-- node_15 -->
<g id="node16" class="node">
<title>node_15</title>
<path fill="none" stroke="black" d="M844.92,-841.12C844.92,-841.12 735.88,-841.12 735.88,-841.12 729.88,-841.12 723.88,-835.12 723.88,-829.12 723.88,-829.12 723.88,-812.32 723.88,-812.32 723.88,-806.32 729.88,-800.32 735.88,-800.32 735.88,-800.32 844.92,-800.32 844.92,-800.32 850.92,-800.32 856.92,-806.32 856.92,-812.32 856.92,-812.32 856.92,-829.12 856.92,-829.12 856.92,-835.12 850.92,-841.12 844.92,-841.12"/>
<text text-anchor="middle" x="790.4" y="-817.22" font-family="Arial" font-size="10.00">graph . render (renderer)</text>
</g>
<!-- node_14&#45;&gt;node_15 -->
<g id="edge13" class="edge">
<title>node_14&#45;&gt;node_15</title>
<path fill="none" stroke="black" d="M790.4,-902.72C790.4,-902.72 790.4,-851.01 790.4,-851.01"/>
<polygon fill="black" stroke="black" points="793.2,-851.01 790.4,-843.01 787.6,-851.01 793.2,-851.01"/>
<text text-anchor="middle" x="799.77" y="-868.62" font-family="Arial" font-size="10.00">next</text>
</g>
<!-- node_15&#45;&gt;node_9 -->
<g id="edge14" class="edge">
<title>node_15&#45;&gt;node_9</title>
<path fill="none" stroke="black" d="M790.4,-799.98C790.4,-799.98 790.4,-748.23 790.4,-748.23"/>
<polygon fill="black" stroke="black" points="793.2,-748.23 790.4,-740.23 787.6,-748.23 793.2,-748.23"/>
<text text-anchor="middle" x="802.77" y="-765.82" font-family="Arial" font-size="10.00">return</text>
</g>
<!-- node_16 -->
<g id="node17" class="node">
<title>node_16</title>
<ellipse fill="lightgreen" stroke="black" cx="1172.4" cy="-1766.25" rx="119.54" ry="119.54"/>
<text text-anchor="middle" x="1172.4" y="-1762.75" font-family="Arial" font-size="10.00">Start: test_analyze_control_flow</text>
</g>
<!-- node_18 -->
<g id="node19" class="node">
<title>node_18</title>
<path fill="none" stroke="black" d="M1253.93,-1583.12C1253.93,-1583.12 1090.88,-1583.12 1090.88,-1583.12 1084.88,-1583.12 1078.88,-1577.12 1078.88,-1571.12 1078.88,-1571.12 1078.88,-1326.32 1078.88,-1326.32 1078.88,-1320.32 1084.88,-1314.32 1090.88,-1314.32 1090.88,-1314.32 1253.93,-1314.32 1253.93,-1314.32 1259.93,-1314.32 1265.93,-1320.32 1265.93,-1326.32 1265.93,-1326.32 1265.93,-1571.12 1265.93,-1571.12 1265.93,-1577.12 1259.93,-1583.12 1253.93,-1583.12"/>
<text text-anchor="middle" x="1172.4" y="-1559.22" font-family="Arial" font-size="10.00">let test_code = r#&quot;</text>
<text text-anchor="middle" x="1172.4" y="-1547.22" font-family="Arial" font-size="10.00"> &#160;&#160;&#160;&#160;&#160;&#160;&#160;&#160;&#160;&#160;&#160;fn example() {</text>
<text text-anchor="middle" x="1172.4" y="-1535.22" font-family="Arial" font-size="10.00"> &#160;&#160;&#160;&#160;&#160;&#160;&#160;&#160;&#160;&#160;&#160;&#160;&#160;&#160;&#160;let x = 5;</text>
<text text-anchor="middle" x="1172.4" y="-1523.22" font-family="Arial" font-size="10.00"> &#160;&#160;&#160;&#160;&#160;&#160;&#160;&#160;&#160;&#160;&#160;&#160;&#160;&#160;&#160;if x &gt; 0 {</text>
<text text-anchor="middle" x="1172.4" y="-1511.22" font-family="Arial" font-size="10.00"> &#160;&#160;&#160;&#160;&#160;&#160;&#160;&#160;&#160;&#160;&#160;&#160;&#160;&#160;&#160;&#160;&#160;&#160;&#160;println!(&quot;positive&quot;);</text>
<text text-anchor="middle" x="1172.4" y="-1499.22" font-family="Arial" font-size="10.00"> &#160;&#160;&#160;&#160;&#160;&#160;&#160;&#160;&#160;&#160;&#160;&#160;&#160;&#160;&#160;} else {</text>
<text text-anchor="middle" x="1172.4" y="-1487.22" font-family="Arial" font-size="10.00"> &#160;&#160;&#160;&#160;&#160;&#160;&#160;&#160;&#160;&#160;&#160;&#160;&#160;&#160;&#160;&#160;&#160;&#160;&#160;println!(&quot;non&#45;positive&quot;);</text>
<text text-anchor="middle" x="1172.4" y="-1475.22" font-family="Arial" font-size="10.00"> &#160;&#160;&#160;&#160;&#160;&#160;&#160;&#160;&#160;&#160;&#160;&#160;&#160;&#160;&#160;}</text>
<text text-anchor="middle" x="1172.4" y="-1463.22" font-family="Arial" font-size="10.00"> &#160;&#160;&#160;&#160;&#160;&#160;&#160;&#160;&#160;&#160;&#160;&#160;&#160;&#160;&#160;</text>
<text text-anchor="middle" x="1172.4" y="-1451.22" font-family="Arial" font-size="10.00"> &#160;&#160;&#160;&#160;&#160;&#160;&#160;&#160;&#160;&#160;&#160;&#160;&#160;&#160;&#160;while x &gt; 0 {</text>
<text text-anchor="middle" x="1172.4" y="-1439.22" font-family="Arial" font-size="10.00"> &#160;&#160;&#160;&#160;&#160;&#160;&#160;&#160;&#160;&#160;&#160;&#160;&#160;&#160;&#160;&#160;&#160;&#160;&#160;println!(&quot;countdown&quot;);</text>
<text text-anchor="middle" x="1172.4" y="-1427.22" font-family="Arial" font-size="10.00"> &#160;&#160;&#160;&#160;&#160;&#160;&#160;&#160;&#160;&#160;&#160;&#160;&#160;&#160;&#160;}</text>
<text text-anchor="middle" x="1172.4" y="-1415.22" font-family="Arial" font-size="10.00"> &#160;&#160;&#160;&#160;&#160;&#160;&#160;&#160;&#160;&#160;&#160;&#160;&#160;&#160;&#160;</text>
<text text-anchor="middle" x="1172.4" y="-1403.22" font-family="Arial" font-size="10.00"> &#160;&#160;&#160;&#160;&#160;&#160;&#160;&#160;&#160;&#160;&#160;&#160;&#160;&#160;&#160;match x {</text>
<text text-anchor="middle" x="1172.4" y="-1391.22" font-family="Arial" font-size="10.00"> &#160;&#160;&#160;&#160;&#160;&#160;&#160;&#160;&#160;&#160;&#160;&#160;&#160;&#160;&#160;&#160;&#160;&#160;&#160;1 =&gt; println!(&quot;one&quot;),</text>
<text text-anchor="middle" x="1172.4" y="-1379.22" font-family="Arial" font-size="10.00"> &#160;&#160;&#160;&#160;&#160;&#160;&#160;&#160;&#160;&#160;&#160;&#160;&#160;&#160;&#160;&#160;&#160;&#160;&#160;2 =&gt; println!(&quot;two&quot;),</text>
<text text-anchor="middle" x="1172.4" y="-1367.22" font-family="Arial" font-size="10.00"> &#160;&#160;&#160;&#160;&#160;&#160;&#160;&#160;&#160;&#160;&#160;&#160;&#160;&#160;&#160;&#160;&#160;&#160;&#160;_ =&gt; println!(&quot;other&quot;),</text>
<text text-anchor="middle" x="1172.4" y="-1355.22" font-family="Arial" font-size="10.00"> &#160;&#160;&#160;&#160;&#160;&#160;&#160;&#160;&#160;&#160;&#160;&#160;&#160;&#160;&#160;}</text>
<text text-anchor="middle" x="1172.4" y="-1343.22" font-family="Arial" font-size="10.00"> &#160;&#160;&#160;&#160;&#160;&#160;&#160;&#160;&#160;&#160;&#160;}</text>
<text text-anchor="middle" x="1172.4" y="-1331.22" font-family="Arial" font-size="10.00"> &#160;&#160;&#160;&#160;&#160;&#160;&#160;&quot;# ;</text>
</g>
<!-- node_16&#45;&gt;node_18 -->
<g id="edge15" class="edge">
<title>node_16&#45;&gt;node_18</title>
<path fill="none" stroke="black" d="M1172.4,-1646.66C1172.4,-1646.66 1172.4,-1592.89 1172.4,-1592.89"/>
<polygon fill="black" stroke="black" points="1175.2,-1592.89 1172.4,-1584.89 1169.6,-1592.89 1175.2,-1592.89"/>
<text text-anchor="middle" x="1181.78" y="-1610.62" font-family="Arial" font-size="10.00">next</text>
</g>
<!-- node_17 -->
<g id="node18" class="node">
<title>node_17</title>
<ellipse fill="lightpink" stroke="black" cx="1172.4" cy="-116.88" rx="116.88" ry="116.88"/>
<text text-anchor="middle" x="1172.4" y="-113.38" font-family="Arial" font-size="10.00">End: test_analyze_control_flow</text>
</g>
<!-- node_19 -->
<g id="node20" class="node">
<title>node_19</title>
<path fill="none" stroke="black" d="M1255.43,-1252.32C1255.43,-1252.32 1089.38,-1252.32 1089.38,-1252.32 1083.38,-1252.32 1077.38,-1246.32 1077.38,-1240.32 1077.38,-1240.32 1077.38,-1223.52 1077.38,-1223.52 1077.38,-1217.52 1083.38,-1211.52 1089.38,-1211.52 1089.38,-1211.52 1255.43,-1211.52 1255.43,-1211.52 1261.43,-1211.52 1267.43,-1217.52 1267.43,-1223.52 1267.43,-1223.52 1267.43,-1240.32 1267.43,-1240.32 1267.43,-1246.32 1261.43,-1252.32 1255.43,-1252.32"/>
<text text-anchor="middle" x="1172.4" y="-1228.42" font-family="Arial" font-size="10.00">let path = PathBuf :: from (&quot;test.rs&quot;) ;</text>
</g>
<!-- node_18&#45;&gt;node_19 -->
<g id="edge16" class="edge">
<title>node_18&#45;&gt;node_19</title>
<path fill="none" stroke="black" d="M1172.4,-1313.88C1172.4,-1313.88 1172.4,-1262.15 1172.4,-1262.15"/>
<polygon fill="black" stroke="black" points="1175.2,-1262.15 1172.4,-1254.15 1169.6,-1262.15 1175.2,-1262.15"/>
<text text-anchor="middle" x="1181.78" y="-1279.82" font-family="Arial" font-size="10.00">next</text>
</g>
<!-- node_20 -->
<g id="node21" class="node">
<title>node_20</title>
<path fill="none" stroke="black" d="M1277.55,-1149.52C1277.55,-1149.52 1067.25,-1149.52 1067.25,-1149.52 1061.25,-1149.52 1055.25,-1143.52 1055.25,-1137.52 1055.25,-1137.52 1055.25,-1120.72 1055.25,-1120.72 1055.25,-1114.72 1061.25,-1108.72 1067.25,-1108.72 1067.25,-1108.72 1277.55,-1108.72 1277.55,-1108.72 1283.55,-1108.72 1289.55,-1114.72 1289.55,-1120.72 1289.55,-1120.72 1289.55,-1137.52 1289.55,-1137.52 1289.55,-1143.52 1283.55,-1149.52 1277.55,-1149.52"/>
<text text-anchor="middle" x="1172.4" y="-1125.62" font-family="Arial" font-size="10.00">std :: fs :: write (&amp; path , test_code) . unwrap ()</text>
</g>
<!-- node_19&#45;&gt;node_20 -->
<g id="edge17" class="edge">
<title>node_19&#45;&gt;node_20</title>
<path fill="none" stroke="black" d="M1172.4,-1211.12C1172.4,-1211.12 1172.4,-1159.41 1172.4,-1159.41"/>
<polygon fill="black" stroke="black" points="1175.2,-1159.41 1172.4,-1151.41 1169.6,-1159.41 1175.2,-1159.41"/>
<text text-anchor="middle" x="1181.78" y="-1177.02" font-family="Arial" font-size="10.00">next</text>
</g>
<!-- node_21 -->
<g id="node22" class="node">
<title>node_21</title>
<path fill="none" stroke="black" d="M1271.93,-1046.72C1271.93,-1046.72 1072.88,-1046.72 1072.88,-1046.72 1066.88,-1046.72 1060.88,-1040.72 1060.88,-1034.72 1060.88,-1034.72 1060.88,-1017.92 1060.88,-1017.92 1060.88,-1011.92 1066.88,-1005.92 1072.88,-1005.92 1072.88,-1005.92 1271.93,-1005.92 1271.93,-1005.92 1277.93,-1005.92 1283.93,-1011.92 1283.93,-1017.92 1283.93,-1017.92 1283.93,-1034.72 1283.93,-1034.72 1283.93,-1040.72 1277.93,-1046.72 1271.93,-1046.72"/>
<text text-anchor="middle" x="1172.4" y="-1022.82" font-family="Arial" font-size="10.00">let result = analyze_file (&amp; path) . unwrap () ;</text>
</g>
<!-- node_20&#45;&gt;node_21 -->
<g id="edge18" class="edge">
<title>node_20&#45;&gt;node_21</title>
<path fill="none" stroke="black" d="M1172.4,-1108.32C1172.4,-1108.32 1172.4,-1056.61 1172.4,-1056.61"/>
<polygon fill="black" stroke="black" points="1175.2,-1056.61 1172.4,-1048.61 1169.6,-1056.61 1175.2,-1056.61"/>
<text text-anchor="middle" x="1181.78" y="-1074.22" font-family="Arial" font-size="10.00">next</text>
</g>
<!-- node_22 -->
<g id="node23" class="node">
<title>node_22</title>
<path fill="none" stroke="black" d="M1242.68,-943.92C1242.68,-943.92 1102.12,-943.92 1102.12,-943.92 1096.12,-943.92 1090.12,-937.92 1090.12,-931.92 1090.12,-931.92 1090.12,-915.12 1090.12,-915.12 1090.12,-909.12 1096.12,-903.12 1102.12,-903.12 1102.12,-903.12 1242.68,-903.12 1242.68,-903.12 1248.68,-903.12 1254.68,-909.12 1254.68,-915.12 1254.68,-915.12 1254.68,-931.92 1254.68,-931.92 1254.68,-937.92 1248.68,-943.92 1242.68,-943.92"/>
<text text-anchor="middle" x="1172.4" y="-920.02" font-family="Arial" font-size="10.00">assert ! (! result . is_empty ()) ;</text>
</g>
<!-- node_21&#45;&gt;node_22 -->
<g id="edge19" class="edge">
<title>node_21&#45;&gt;node_22</title>
<path fill="none" stroke="black" d="M1172.4,-1005.52C1172.4,-1005.52 1172.4,-953.81 1172.4,-953.81"/>
<polygon fill="black" stroke="black" points="1175.2,-953.81 1172.4,-945.81 1169.6,-953.81 1175.2,-953.81"/>
<text text-anchor="middle" x="1181.78" y="-971.42" font-family="Arial" font-size="10.00">next</text>
</g>
<!-- node_23 -->
<g id="node24" class="node">
<title>node_23</title>
<path fill="none" stroke="black" d="M1273.8,-841.12C1273.8,-841.12 1071,-841.12 1071,-841.12 1065,-841.12 1059,-835.12 1059,-829.12 1059,-829.12 1059,-812.32 1059,-812.32 1059,-806.32 1065,-800.32 1071,-800.32 1071,-800.32 1273.8,-800.32 1273.8,-800.32 1279.8,-800.32 1285.8,-806.32 1285.8,-812.32 1285.8,-812.32 1285.8,-829.12 1285.8,-829.12 1285.8,-835.12 1279.8,-841.12 1273.8,-841.12"/>
<text text-anchor="middle" x="1172.4" y="-817.22" font-family="Arial" font-size="10.00">assert ! (result . contains (&quot;Start: example&quot;)) ;</text>
</g>
<!-- node_22&#45;&gt;node_23 -->
<g id="edge20" class="edge">
<title>node_22&#45;&gt;node_23</title>
<path fill="none" stroke="black" d="M1172.4,-902.72C1172.4,-902.72 1172.4,-851.01 1172.4,-851.01"/>
<polygon fill="black" stroke="black" points="1175.2,-851.01 1172.4,-843.01 1169.6,-851.01 1175.2,-851.01"/>
<text text-anchor="middle" x="1181.78" y="-868.62" font-family="Arial" font-size="10.00">next</text>
</g>
<!-- node_24 -->
<g id="node25" class="node">
<title>node_24</title>
<path fill="none" stroke="black" d="M1262.55,-640.25C1262.55,-640.25 1082.25,-640.25 1082.25,-640.25 1076.25,-640.25 1070.25,-634.25 1070.25,-628.25 1070.25,-628.25 1070.25,-611.45 1070.25,-611.45 1070.25,-605.45 1076.25,-599.45 1082.25,-599.45 1082.25,-599.45 1262.55,-599.45 1262.55,-599.45 1268.55,-599.45 1274.55,-605.45 1274.55,-611.45 1274.55,-611.45 1274.55,-628.25 1274.55,-628.25 1274.55,-634.25 1268.55,-640.25 1262.55,-640.25"/>
<text text-anchor="middle" x="1172.4" y="-616.35" font-family="Arial" font-size="10.00">assert ! (result . contains (&quot;Condition&quot;)) ;</text>
</g>
<!-- node_23&#45;&gt;node_24 -->
<g id="edge21" class="edge">
<title>node_23&#45;&gt;node_24</title>
<path fill="none" stroke="black" d="M1172.4,-799.98C1172.4,-799.98 1172.4,-649.99 1172.4,-649.99"/>
<polygon fill="black" stroke="black" points="1175.2,-649.99 1172.4,-641.99 1169.6,-649.99 1175.2,-649.99"/>
<text text-anchor="middle" x="1181.78" y="-765.82" font-family="Arial" font-size="10.00">next</text>
</g>
<!-- node_25 -->
<g id="node26" class="node">
<title>node_25</title>
<path fill="none" stroke="black" d="M1252.43,-439.37C1252.43,-439.37 1092.38,-439.37 1092.38,-439.37 1086.38,-439.37 1080.38,-433.37 1080.38,-427.37 1080.38,-427.37 1080.38,-410.57 1080.38,-410.57 1080.38,-404.57 1086.38,-398.57 1092.38,-398.57 1092.38,-398.57 1252.43,-398.57 1252.43,-398.57 1258.43,-398.57 1264.43,-404.57 1264.43,-410.57 1264.43,-410.57 1264.43,-427.37 1264.43,-427.37 1264.43,-433.37 1258.43,-439.37 1252.43,-439.37"/>
<text text-anchor="middle" x="1172.4" y="-415.47" font-family="Arial" font-size="10.00">assert ! (result . contains (&quot;Loop&quot;)) ;</text>
</g>
<!-- node_24&#45;&gt;node_25 -->
<g id="edge22" class="edge">
<title>node_24&#45;&gt;node_25</title>
<path fill="none" stroke="black" d="M1172.4,-599.1C1172.4,-599.1 1172.4,-449.11 1172.4,-449.11"/>
<polygon fill="black" stroke="black" points="1175.2,-449.11 1172.4,-441.11 1169.6,-449.11 1175.2,-449.11"/>
<text text-anchor="middle" x="1181.78" y="-466.87" font-family="Arial" font-size="10.00">next</text>
</g>
<!-- node_26 -->
<g id="node27" class="node">
<title>node_26</title>
<path fill="none" stroke="black" d="M1261.43,-336.57C1261.43,-336.57 1083.38,-336.57 1083.38,-336.57 1077.38,-336.57 1071.38,-330.57 1071.38,-324.57 1071.38,-324.57 1071.38,-307.77 1071.38,-307.77 1071.38,-301.77 1077.38,-295.77 1083.38,-295.77 1083.38,-295.77 1261.43,-295.77 1261.43,-295.77 1267.43,-295.77 1273.43,-301.77 1273.43,-307.77 1273.43,-307.77 1273.43,-324.57 1273.43,-324.57 1273.43,-330.57 1267.43,-336.57 1261.43,-336.57"/>
<text text-anchor="middle" x="1172.4" y="-312.67" font-family="Arial" font-size="10.00">std :: fs :: remove_file (path) . unwrap ()</text>
</g>
<!-- node_25&#45;&gt;node_26 -->
<g id="edge23" class="edge">
<title>node_25&#45;&gt;node_26</title>
<path fill="none" stroke="black" d="M1172.4,-398.17C1172.4,-398.17 1172.4,-346.46 1172.4,-346.46"/>
<polygon fill="black" stroke="black" points="1175.2,-346.46 1172.4,-338.46 1169.6,-346.46 1175.2,-346.46"/>
<text text-anchor="middle" x="1181.78" y="-364.07" font-family="Arial" font-size="10.00">next</text>
</g>
<!-- node_26&#45;&gt;node_17 -->
<g id="edge24" class="edge">
<title>node_26&#45;&gt;node_17</title>
<path fill="none" stroke="black" d="M1172.4,-295.59C1172.4,-295.59 1172.4,-243.41 1172.4,-243.41"/>
<polygon fill="black" stroke="black" points="1175.2,-243.41 1172.4,-235.41 1169.6,-243.41 1175.2,-243.41"/>
<text text-anchor="middle" x="1184.78" y="-261.27" font-family="Arial" font-size="10.00">return</text>
</g>
</g>
</svg>
