<?xml version="1.0" encoding="UTF-8" standalone="no"?>
<!DOCTYPE svg PUBLIC "-//W3C//DTD SVG 1.1//EN"
 "http://www.w3.org/Graphics/SVG/1.1/DTD/svg11.dtd">
<!-- Generated by graphviz version 12.2.1 (20241206.2353)
 -->
<!-- Title: G Pages: 1 -->
<svg width="360pt" height="654pt"
 viewBox="0.00 0.00 359.60 654.09" xmlns="http://www.w3.org/2000/svg" xmlns:xlink="http://www.w3.org/1999/xlink">
<g id="graph0" class="graph" transform="scale(1 1) rotate(0) translate(4 650.09)">
<title>G</title>
<polygon fill="white" stroke="none" points="-4,4 -4,-650.09 355.6,-650.09 355.6,4 -4,4"/>
<!-- node_0 -->
<g id="node1" class="node">
<title>node_0</title>
<ellipse fill="lightgreen" stroke="black" cx="175.8" cy="-587.54" rx="58.55" ry="58.55"/>
<text text-anchor="middle" x="175.8" y="-584.04" font-family="Arial" font-size="10.00">Start: render</text>
</g>
<!-- node_1 -->
<g id="node2" class="node">
<title>node_1</title>
<path fill="none" stroke="black" d="M209.7,-466.24C209.7,-466.24 141.9,-466.24 141.9,-466.24 135.9,-466.24 129.9,-460.24 129.9,-454.24 129.9,-454.24 129.9,-436.69 129.9,-436.69 129.9,-430.69 135.9,-424.69 141.9,-424.69 141.9,-424.69 209.7,-424.69 209.7,-424.69 215.7,-424.69 221.7,-430.69 221.7,-436.69 221.7,-436.69 221.7,-454.24 221.7,-454.24 221.7,-460.24 215.7,-466.24 209.7,-466.24"/>
<text text-anchor="middle" x="175.8" y="-442.34" font-family="Arial" font-size="10.00">获取样式</text>
</g>
<!-- node_0&#45;&gt;node_1 -->
<g id="edge1" class="edge">
<title>node_0&#45;&gt;node_1</title>
<path fill="none" stroke="black" d="M175.8,-528.52C175.8,-528.52 175.8,-476.16 175.8,-476.16"/>
<polygon fill="black" stroke="black" points="178.6,-476.16 175.8,-468.16 173,-476.16 178.6,-476.16"/>
<text text-anchor="middle" x="191.55" y="-494.49" font-family="Arial" font-size="10.00">开始</text>
</g>
<!-- node_2 -->
<g id="node3" class="node">
<title>node_2</title>
<polygon fill="lightyellow" stroke="black" points="175.8,-361.94 0,-320.39 175.8,-278.84 351.6,-320.39 175.8,-361.94"/>
<text text-anchor="middle" x="175.8" y="-317.27" font-family="Arial" font-size="10.00">Condition: 是否为基本块?</text>
</g>
<!-- node_1&#45;&gt;node_2 -->
<g id="edge2" class="edge">
<title>node_1&#45;&gt;node_2</title>
<path fill="none" stroke="black" d="M175.8,-424.25C175.8,-424.25 175.8,-371.76 175.8,-371.76"/>
<polygon fill="black" stroke="black" points="178.6,-371.76 175.8,-363.76 173,-371.76 178.6,-371.76"/>
<text text-anchor="middle" x="207.3" y="-390.19" font-family="Arial" font-size="10.00">获取完成</text>
</g>
<!-- node_3 -->
<g id="node4" class="node">
<title>node_3</title>
<path fill="none" stroke="black" d="M146.45,-216.09C146.45,-216.09 47.15,-216.09 47.15,-216.09 41.15,-216.09 35.15,-210.09 35.15,-204.09 35.15,-204.09 35.15,-186.54 35.15,-186.54 35.15,-180.54 41.15,-174.54 47.15,-174.54 47.15,-174.54 146.45,-174.54 146.45,-174.54 152.45,-174.54 158.45,-180.54 158.45,-186.54 158.45,-186.54 158.45,-204.09 158.45,-204.09 158.45,-210.09 152.45,-216.09 146.45,-216.09"/>
<text text-anchor="middle" x="96.8" y="-192.19" font-family="Arial" font-size="10.00">应用圆角样式</text>
</g>
<!-- node_2&#45;&gt;node_3 -->
<g id="edge3" class="edge">
<title>node_2&#45;&gt;node_3</title>
<path fill="none" stroke="black" d="M96.8,-297.16C96.8,-297.16 96.8,-225.86 96.8,-225.86"/>
<polygon fill="black" stroke="black" points="99.6,-225.86 96.8,-217.86 94,-225.86 99.6,-225.86"/>
<text text-anchor="middle" x="155.68" y="-244.34" font-family="Arial" font-size="10.00">是</text>
</g>
<!-- node_4 -->
<g id="node5" class="node">
<title>node_4</title>
<path fill="none" stroke="black" d="M305.45,-216.09C305.45,-216.09 206.15,-216.09 206.15,-216.09 200.15,-216.09 194.15,-210.09 194.15,-204.09 194.15,-204.09 194.15,-186.54 194.15,-186.54 194.15,-180.54 200.15,-174.54 206.15,-174.54 206.15,-174.54 305.45,-174.54 305.45,-174.54 311.45,-174.54 317.45,-180.54 317.45,-186.54 317.45,-186.54 317.45,-204.09 317.45,-204.09 317.45,-210.09 311.45,-216.09 305.45,-216.09"/>
<text text-anchor="middle" x="255.8" y="-192.19" font-family="Arial" font-size="10.00">应用填充样式</text>
</g>
<!-- node_2&#45;&gt;node_4 -->
<g id="edge4" class="edge">
<title>node_2&#45;&gt;node_4</title>
<path fill="none" stroke="black" d="M255.8,-297.45C255.8,-297.45 255.8,-225.96 255.8,-225.96"/>
<polygon fill="black" stroke="black" points="258.6,-225.96 255.8,-217.96 253,-225.96 258.6,-225.96"/>
<text text-anchor="middle" x="237.68" y="-244.34" font-family="Arial" font-size="10.00">否</text>
</g>
<!-- node_5 -->
<g id="node6" class="node">
<title>node_5</title>
<ellipse fill="lightpink" stroke="black" cx="175.8" cy="-55.9" rx="55.9" ry="55.9"/>
<text text-anchor="middle" x="175.8" y="-52.4" font-family="Arial" font-size="10.00">End: render</text>
</g>
<!-- node_3&#45;&gt;node_5 -->
<g id="edge5" class="edge">
<title>node_3&#45;&gt;node_5</title>
<path fill="none" stroke="black" d="M139.18,-174.14C139.18,-174.14 139.18,-108.18 139.18,-108.18"/>
<polygon fill="black" stroke="black" points="141.98,-108.18 139.18,-100.18 136.38,-108.18 141.98,-108.18"/>
<text text-anchor="middle" x="155.55" y="-140.04" font-family="Arial" font-size="10.00">完成</text>
</g>
<!-- node_4&#45;&gt;node_5 -->
<g id="edge6" class="edge">
<title>node_4&#45;&gt;node_5</title>
<path fill="none" stroke="black" d="M212.92,-174.14C212.92,-174.14 212.92,-107.61 212.92,-107.61"/>
<polygon fill="black" stroke="black" points="215.72,-107.61 212.92,-99.61 210.12,-107.61 215.72,-107.61"/>
<text text-anchor="middle" x="249.55" y="-140.04" font-family="Arial" font-size="10.00">完成</text>
</g>
</g>
</svg>
